<?xml version="1.0" encoding="UTF-8"?>
<!-- Created with Inkscape (http://www.inkscape.org/) -->
<svg width="147.68mm" height="127.71mm" version="1.1" viewBox="0 0 147.68 127.71" xml:space="preserve" xmlns="http://www.w3.org/2000/svg"><g transform="translate(-19.127 -77.755)"><g transform="rotate(-.4 82.681 59.052)" fill="#fff" stroke-width=".26458"><path transform="translate(41.661 48.34)" d="m50.856 72.216-24.359-42.895 49.328 0.35234-12.485 21.272z"/><path transform="translate(90.845 48.689)" d="m50.856 72.216-24.359-42.895 49.328 0.35234-12.485 21.272z"/><path transform="translate(-7.4996 47.99)" d="m50.856 72.216-24.359-42.895 49.328 0.35234-12.485 21.272z"/><g transform="translate(.035961 -.10788)"><path transform="translate(65.884 90.997)" d="m50.856 72.216-24.359-42.895 49.328 0.35234-12.485 21.272z"/><path transform="translate(16.724 90.648)" d="m50.856 72.216-24.359-42.895 49.328 0.35234-12.485 21.272z"/></g><path transform="translate(41.012 133.32)" d="m50.856 72.216-24.359-42.895 49.328 0.35234-12.485 21.272z"/></g></g></svg>
